<svg xmlns="http://www.w3.org/2000/svg" xmlns:xlink="http://www.w3.org/1999/xlink" viewBox="707 2267.231 505.417 242.769">
  <defs>
    <style>
      .cls-1 {
        fill: #fff;
      }

      .cls-10, .cls-15, .cls-2, .cls-3, .cls-4, .cls-5, .cls-6, .cls-7, .cls-8, .cls-9 {
        fill: none;
      }

      .cls-2 {
        stroke: rgba(255,255,255,0.38);
      }

      .cls-10, .cls-2, .cls-3, .cls-4, .cls-5, .cls-6, .cls-7, .cls-8, .cls-9 {
        stroke-width: 3px;
      }

      .cls-3 {
        stroke: rgba(255,255,255,0.67);
      }

      .cls-4 {
        stroke: rgba(255,255,255,0.47);
      }

      .cls-5 {
        stroke: rgba(255,255,255,0.8);
      }

      .cls-6 {
        stroke: rgba(255,255,255,0.42);
      }

      .cls-7 {
        stroke: rgba(255,255,255,0.78);
      }

      .cls-8 {
        stroke: rgba(255,255,255,0.64);
      }

      .cls-9 {
        stroke: rgba(255,255,255,0.71);
      }

      .cls-10 {
        stroke: #00a7ff;
      }

      .cls-11 {
        fill: rgba(2,2,2,0.33);
      }

      .cls-12 {
        fill: rgba(0,0,0,0.33);
      }

      .cls-13 {
        fill: url(#linear-gradient);
      }

      .cls-14 {
        stroke: none;
      }

      .cls-16 {
        filter: url(#Path_23);
      }

      .cls-17 {
        filter: url(#Rectangle_68);
      }

      .cls-18 {
        filter: url(#Ellipse_1);
      }
    </style>
    <filter id="Ellipse_1" x="903.892" y="2398.367" width="111.633" height="111.633" filterUnits="userSpaceOnUse">
      <feOffset dy="2" input="SourceAlpha"/>
      <feGaussianBlur stdDeviation="3" result="blur"/>
      <feFlood flood-color="#555" flood-opacity="0.376"/>
      <feComposite operator="in" in2="blur"/>
      <feComposite in="SourceGraphic"/>
    </filter>
    <filter id="Rectangle_68" x="707" y="2267.231" width="505.417" height="111.633" filterUnits="userSpaceOnUse">
      <feOffset dy="3" input="SourceAlpha"/>
      <feGaussianBlur stdDeviation="3" result="blur-2"/>
      <feFlood flood-opacity="0.161"/>
      <feComposite operator="in" in2="blur-2"/>
      <feComposite in="SourceGraphic"/>
    </filter>
    <filter id="Path_23" x="940.558" y="2359.749" width="38.889" height="29.07" filterUnits="userSpaceOnUse">
      <feOffset dy="3" input="SourceAlpha"/>
      <feGaussianBlur stdDeviation="3" result="blur-3"/>
      <feFlood flood-opacity="0.161"/>
      <feComposite operator="in" in2="blur-3"/>
      <feComposite in="SourceGraphic"/>
    </filter>
    <linearGradient id="linear-gradient" y1="-0.105" x2="1" y2="1" gradientUnits="objectBoundingBox">
      <stop offset="0" stop-color="#a700ff"/>
      <stop offset="1" stop-color="#ffa700"/>
    </linearGradient>
  </defs>
  <g id="Group_4" data-name="Group 4" transform="translate(59 5.231)">
    <g id="Group_3" data-name="Group 3" transform="translate(657 2268)">
      <g class="cls-18" transform="matrix(1, 0, 0, 1, -716, -2273.23)">
        <circle id="Ellipse_1-2" data-name="Ellipse 1" class="cls-1" cx="46.816" cy="46.816" r="46.816" transform="translate(912.89 2405.37)"/>
      </g>
      <g class="cls-17" transform="matrix(1, 0, 0, 1, -716, -2273.23)">
        <rect id="Rectangle_68-2" data-name="Rectangle 68" class="cls-1" width="487.417" height="93.633" rx="46.816" transform="translate(716 2273.23)"/>
      </g>
      <g class="cls-16" transform="matrix(1, 0, 0, 1, -716, -2273.23)">
        <path id="Path_23-2" data-name="Path 23" class="cls-1" d="M610.9,2406.441l10.444,11.07,10.444-11.07Z" transform="translate(338.66 -40.69)"/>
      </g>
      <g id="Ellipse_2" data-name="Ellipse 2" class="cls-2" transform="translate(297.525 138.262)">
        <circle class="cls-14" cx="11.376" cy="11.376" r="11.376"/>
        <circle class="cls-15" cx="11.376" cy="11.376" r="9.876"/>
      </g>
      <g id="Ellipse_3" data-name="Ellipse 3" class="cls-3" transform="translate(127.761 98.883)">
        <circle class="cls-14" cx="9.188" cy="9.188" r="9.188"/>
        <circle class="cls-15" cx="9.188" cy="9.188" r="7.688"/>
      </g>
      <g id="Group_1" data-name="Group 1" transform="matrix(0.883, 0.469, -0.469, 0.883, 348.833, 99.248)">
        <line id="Line_1" data-name="Line 1" class="cls-4" x2="15.314" y2="15.314"/>
        <line id="Line_2" data-name="Line 2" class="cls-4" x1="15.314" y2="15.314" transform="translate(0 0)"/>
      </g>
      <g id="Group_2" data-name="Group 2" transform="translate(160.905 142.856) rotate(-45)">
        <line id="Line_3" data-name="Line 3" class="cls-5" x2="15.314" y2="15.314" transform="translate(0 0)"/>
        <line id="Line_4" data-name="Line 4" class="cls-5" x1="15.314" y2="15.314" transform="translate(0 0)"/>
      </g>
      <path id="Path_24" data-name="Path 24" class="cls-6" d="M0,8.7,4.7,0,9.4,8.7Z" transform="translate(203.941 108.936) rotate(-21)"/>
      <path id="Path_25" data-name="Path 25" class="cls-6" d="M0,15.613,8.44,0l8.44,15.613Z" transform="translate(273.343 100.469) rotate(30)"/>
      <path id="Path_26" data-name="Path 26" class="cls-6" d="M0,10.934,5.91,0l5.91,10.934Z" transform="translate(117.236 139.247) rotate(-21)"/>
      <g id="Rectangle_70" data-name="Rectangle 70" class="cls-7" transform="translate(383.378 109.971) rotate(-30)">
        <rect class="cls-14" width="16.626" height="16.626"/>
        <rect class="cls-15" x="1.5" y="1.5" width="13.626" height="13.626"/>
      </g>
      <g id="Rectangle_71" data-name="Rectangle 71" class="cls-8" transform="matrix(0.966, 0.259, -0.259, 0.966, 73.829, 102.832)">
        <rect class="cls-14" width="16.626" height="16.626"/>
        <rect class="cls-15" x="1.5" y="1.5" width="13.626" height="13.626"/>
      </g>
      <path id="Path_27" data-name="Path 27" class="cls-9" d="M0,10.934,5.91,0l5.91,10.934Z" transform="translate(346.322 136.766)"/>
      <g id="Group_5" data-name="Group 5" transform="translate(230.566 178.586) rotate(-45)">
        <line id="Line_5" data-name="Line 5" class="cls-10" x2="18.206" y2="18.206"/>
        <line id="Line_6" data-name="Line 6" class="cls-10" x1="18.206" y2="18.206" transform="translate(0 0)"/>
      </g>
    </g>
    <g id="house_1_" data-name="house (1)" transform="translate(706.004 2294.252)">
      <path id="Path_28" data-name="Path 28" class="cls-11" d="M38.524,13.62,22.758.358a1.525,1.525,0,0,0-1.962,0L4.919,13.714A1.524,1.524,0,0,0,5.9,16.4H8.217v17.7a3.657,3.657,0,0,0,3.657,3.657h5.18V27.406a1.219,1.219,0,0,1,1.219-1.219h7.009A1.219,1.219,0,0,1,26.5,27.406V37.767h5.181a3.658,3.658,0,0,0,3.657-3.657V16.4h2.329a1.524,1.524,0,0,0,.856-2.784Z" transform="translate(-4.376 0)"/>
    </g>
    <g id="man-user" transform="translate(1062.16 2294.252)">
      <path id="Path_29" data-name="Path 29" class="cls-12" d="M112.138,18.47c4.2,0,7.6-4.135,7.6-9.235S118.624,0,112.138,0s-7.6,4.135-7.6,9.235S107.939,18.47,112.138,18.47Z" transform="translate(-97.776)"/>
      <path id="Path_30" data-name="Path 30" d="M41.9,300.532c0-.311,0-.088,0,0Z" transform="translate(-41.895 -267.961)"/>
      <path id="Path_31" data-name="Path 31" d="M308.085,301.769c0-.085,0-.591,0,0Z" transform="translate(-279.362 -268.955)"/>
      <path id="Path_32" data-name="Path 32" class="cls-12" d="M70.613,190.759c-.141-8.885-1.3-11.417-10.181-13.019a5.323,5.323,0,0,1-4.163,1.593,5.324,5.324,0,0,1-4.164-1.593c-8.783,1.585-10.014,4.079-10.176,12.731-.013.706-.019.744-.022.662,0,.154,0,.438,0,.934,0,0,2.114,4.262,14.36,4.262s14.36-4.262,14.36-4.262c0-.318,0-.54,0-.69A5.723,5.723,0,0,1,70.613,190.759Z" transform="translate(-41.907 -158.561)"/>
    </g>
    <path id="placeholder_2_" data-name="placeholder (2)" class="cls-12" d="M30.36,3.867h0a13.2,13.2,0,0,0-18.67,0h0C7.044,8.512,6.522,17.259,10.464,22.515L21.025,37.767,31.586,22.515C35.528,17.259,35,8.512,30.36,3.867ZM21.153,17.431a4.358,4.358,0,1,1,4.358-4.358A4.357,4.357,0,0,1,21.153,17.431Z" transform="translate(818.066 2295.127)"/>
    <path id="star" class="cls-13" d="M37.67,17.766a2.762,2.762,0,0,0-1.531-4.71L26.815,11.7a1.218,1.218,0,0,1-.918-.667L21.729,2.586a2.762,2.762,0,0,0-4.952,0l-4.169,8.448a1.219,1.219,0,0,1-.918.667L2.366,13.056a2.762,2.762,0,0,0-1.531,4.71l6.746,6.575a1.221,1.221,0,0,1,.352,1.079L6.341,34.706a2.7,2.7,0,0,0,.6,2.239,2.79,2.79,0,0,0,3.4.672l8.338-4.384a1.248,1.248,0,0,1,1.135,0l8.339,4.384a2.733,2.733,0,0,0,1.285.322,2.769,2.769,0,0,0,2.119-.993,2.7,2.7,0,0,0,.6-2.239l-1.592-9.285a1.22,1.22,0,0,1,.352-1.079Z" transform="translate(937.9 2294.08)"/>
  </g>
</svg>
