<svg xmlns="http://www.w3.org/2000/svg" viewBox="6549.176 924.407 764.836 180.113"><defs><style>.a,.b,.c,.d,.e,.f,.g,.h,.i,.k{fill:none;}.a{stroke:rgba(255,255,255,0.38);}.a,.b,.c,.d,.e,.f,.g,.h,.i{stroke-width:3px;}.b{stroke:rgba(255,255,255,0.67);}.c{stroke:rgba(255,255,255,0.47);}.d{stroke:rgba(255,255,255,0.8);}.e{stroke:rgba(255,255,255,0.42);}.f{stroke:rgba(255,255,255,0.78);}.g{stroke:rgba(255,255,255,0.64);}.h{stroke:rgba(255,255,255,0.71);}.i{stroke:rgba(255,255,255,0.75);}.j{stroke:none;}</style></defs><g transform="translate(8047.212 4204.096) rotate(-180)"><g class="a" transform="translate(1224.572 3238.475)"><circle class="j" cx="20.289" cy="20.289" r="20.289"/><circle class="k" cx="20.289" cy="20.289" r="18.789"/></g><g class="b" transform="translate(921.796 3168.244)"><circle class="j" cx="16.387" cy="16.387" r="16.387"/><circle class="k" cx="16.387" cy="16.387" r="14.887"/></g><g transform="matrix(0.883, 0.469, -0.469, 0.883, 1316.079, 3168.894)"><line class="c" x2="27.312" y2="27.312" transform="translate(0 0)"/><line class="c" x1="27.312" y2="27.312" transform="translate(0 0)"/></g><g transform="translate(980.909 3246.669) rotate(-45)"><line class="d" x2="27.312" y2="27.312" transform="translate(0 0)"/><line class="d" x1="27.312" y2="27.312" transform="translate(0 0)"/></g><path class="e" d="M0,15.513,8.386,0l8.386,15.513Z" transform="translate(1057.664 3186.173) rotate(-21)"/><path class="e" d="M0,27.846,15.053,0,30.106,27.846Z" transform="translate(1181.442 3171.072) rotate(30)"/><path class="e" d="M0,19.5,10.541,0,21.083,19.5Z" transform="translate(903.025 3240.232) rotate(-21)"/><g class="f" transform="translate(1377.691 3188.019) rotate(-30)"><rect class="j" width="29.653" height="29.653"/><rect class="k" x="1.5" y="1.5" width="26.653" height="26.653"/></g><g class="g" transform="matrix(0.966, 0.259, -0.259, 0.966, 825.609, 3175.287)"><rect class="j" width="29.653" height="29.653"/><rect class="k" x="1.5" y="1.5" width="26.653" height="26.653"/></g><path class="h" d="M0,19.5,10.541,0,21.083,19.5Z" transform="translate(1311.602 3235.807)"/><g class="f" transform="translate(1099.465 3254.009) rotate(-30)"><rect class="j" width="29.653" height="29.653"/><rect class="k" x="1.5" y="1.5" width="26.653" height="26.653"/></g><g transform="translate(980.909 3246.669) rotate(-45)"><line class="d" x2="27.312" y2="27.312" transform="translate(0 0)"/><line class="d" x1="27.312" y2="27.312" transform="translate(0 0)"/></g><path class="e" d="M0,19.5,10.541,0,21.083,19.5Z" transform="translate(736.679 3112.146) rotate(-21)"/><g class="f" transform="translate(997.994 3120.932) rotate(-30)"><rect class="j" width="29.653" height="29.653"/><rect class="k" x="1.5" y="1.5" width="26.653" height="26.653"/></g><g class="a" transform="translate(1457.457 3105.398)"><circle class="j" cx="20.289" cy="20.289" r="20.289"/><circle class="k" cx="20.289" cy="20.289" r="18.789"/></g><path class="h" d="M0,19.5,10.541,0,21.083,19.5Z" transform="translate(1378.141 3102.73)"/><g transform="translate(853.489 3143.883) rotate(-90)"><line class="d" x2="27.312" y2="27.312" transform="translate(0 0)"/><line class="d" x1="27.312" y2="27.312" transform="translate(0 0)"/></g><g class="i" transform="translate(1104.803 3122.033)"><circle class="j" cx="15.299" cy="15.299" r="15.299"/><circle class="k" cx="15.299" cy="15.299" r="13.799"/></g><g class="g" transform="matrix(0.966, 0.259, -0.259, 0.966, 1233.158, 3118.729)"><rect class="j" width="29.653" height="29.653"/><rect class="k" x="1.5" y="1.5" width="26.653" height="26.653"/></g><g transform="matrix(0.883, 0.469, -0.469, 0.883, 1178.011, 3105.682)"><line class="c" x2="20.647" y2="20.647" transform="translate(0 0)"/><line class="c" x1="20.647" y2="20.647" transform="translate(0 0)"/></g></g></svg>