<svg xmlns="http://www.w3.org/2000/svg" viewBox="4168 1633.482 65.518 65.518">
  <defs>
    <style>
      .cls-1 {
        fill: #009dff;
      }
    </style>
  </defs>
  <path id="design_3d-cube" class="cls-1" d="M64.674.1a1.377,1.377,0,0,0-.521-.1H17.744a1.377,1.377,0,0,0-.521.1,1.414,1.414,0,0,0-.445.3L.4,16.778a1.414,1.414,0,0,0-.3.445,1.377,1.377,0,0,0-.1.521V64.153a1.366,1.366,0,0,0,1.365,1.365H47.773a1.377,1.377,0,0,0,.521-.1,1.3,1.3,0,0,0,.445-.3L65.116,48.74a1.414,1.414,0,0,0,.3-.445,1.377,1.377,0,0,0,.1-.521V1.365a1.33,1.33,0,0,0-.106-.521A1.369,1.369,0,0,0,64.674.1ZM19.109,19.109h27.3v27.3h-27.3Zm28.1-2.73h-28.1V2.73H60.858Zm-30.829,0H4.66L16.379,4.66ZM2.73,19.109H16.379v28.1L2.73,60.858Zm15.58,30.029h28.1V62.788H4.66Zm30.829,0H60.858L49.138,60.858Zm13.649-2.73H49.138v-28.1L62.788,4.66Z" transform="translate(4168 1633.482)"/>
</svg>
