<svg xmlns="http://www.w3.org/2000/svg" viewBox="173 1584.091 68.353 68.355">
  <defs>
    <style>
      .cls-1 {
        fill: #009dff;
      }
    </style>
  </defs>
  <g id="design_pen-tool-2" transform="translate(173 1584.091)">
    <path id="Path_925" data-name="Path 925" class="cls-1" d="M64.081,8.544a4.272,4.272,0,1,0-4.01-5.7H38.449V1.424A1.425,1.425,0,0,0,37.025,0h-5.7A1.425,1.425,0,0,0,29.9,1.424V2.848H8.282a4.272,4.272,0,1,0,0,2.848H21.067A31.193,31.193,0,0,0,3.4,28.481H1.424A1.425,1.425,0,0,0,0,29.9v5.7a1.425,1.425,0,0,0,1.424,1.424h5.7A1.425,1.425,0,0,0,8.544,35.6V29.9A1.425,1.425,0,0,0,7.12,28.481H6.3A28.369,28.369,0,0,1,29.9,6.021v1.1a1.425,1.425,0,0,0,1.424,1.424h5.7A1.425,1.425,0,0,0,38.449,7.12v-1.1a28.365,28.365,0,0,1,23.6,22.46h-.82A1.425,1.425,0,0,0,59.809,29.9v5.7a1.425,1.425,0,0,0,1.424,1.424h5.7A1.425,1.425,0,0,0,68.353,35.6V29.9a1.425,1.425,0,0,0-1.424-1.424H64.95A31.193,31.193,0,0,0,47.286,5.7H60.071A4.264,4.264,0,0,0,64.081,8.544ZM5.7,34.177H2.848V31.329H5.7Zm59.809,0H62.657V31.329h2.848ZM64.081,2.848a1.424,1.424,0,1,1-1.424,1.424A1.426,1.426,0,0,1,64.081,2.848ZM4.272,5.7A1.424,1.424,0,1,1,5.7,4.272,1.426,1.426,0,0,1,4.272,5.7ZM35.6,5.7H32.753V2.848H35.6Z"/>
    <path id="Path_926" data-name="Path 926" class="cls-1" d="M38.754,38.135a1.434,1.434,0,0,0,1.213-.675,1.419,1.419,0,0,0,.06-1.384L24.362,4.747a1.484,1.484,0,0,0-2.549,0L6.149,36.076a1.423,1.423,0,0,0,1.276,2.059,7.127,7.127,0,0,1,6.975,5.7H12.606a4.285,4.285,0,0,0-4.189,3.435L6.029,59.216a1.425,1.425,0,0,0,1.4,1.7H38.754a.33.33,0,0,0,.054,0A1.425,1.425,0,0,0,40.232,59.5a1.367,1.367,0,0,0-.159-.655L37.757,47.266a4.275,4.275,0,0,0-4.184-3.435H31.779A7.127,7.127,0,0,1,38.754,38.135ZM9.159,58.071l.57-2.848H36.447l.57,2.848ZM34.969,47.824l.911,4.551H10.3l.911-4.551a1.429,1.429,0,0,1,1.4-1.145H33.57A1.43,1.43,0,0,1,34.969,47.824Zm-6.058-3.993H17.268a9.978,9.978,0,0,0-7.661-8.3L23.089,8.566l13.48,26.96A9.981,9.981,0,0,0,28.911,43.831Z" transform="translate(11.087 7.434)"/>
    <path id="Path_927" data-name="Path 927" class="cls-1" d="M15.7,11a5.7,5.7,0,1,0,5.7,5.7A5.7,5.7,0,0,0,15.7,11Zm0,8.544A2.848,2.848,0,1,1,18.544,16.7,2.851,2.851,0,0,1,15.7,19.544Z" transform="translate(18.481 20.329)"/>
  </g>
</svg>
