<svg xmlns="http://www.w3.org/2000/svg" viewBox="4168 1269.966 72.035 69.034">
  <defs>
    <style>
      .cls-1 {
        fill: #ff7a00;
      }
    </style>
  </defs>
  <path id="design_rgb-colors" class="cls-1" d="M55.947,28.619a21.01,21.01,0,1,0-39.859,0A21,21,0,1,0,36.018,63.7a21,21,0,1,0,19.93-35.081ZM18.009,22.01a18.009,18.009,0,1,1,34.931,6.1c-.63-.057-1.27-.1-1.915-.1a20.94,20.94,0,0,0-15.007,6.333A20.94,20.94,0,0,0,21.01,28.013c-.645,0-1.285.039-1.915.1A17.882,17.882,0,0,1,18.009,22.01Zm21.01,27.013a17.894,17.894,0,0,1-3,9.935A17.838,17.838,0,0,1,34.1,42.924c.63.057,1.27.1,1.915.1s1.285-.039,1.915-.1A17.882,17.882,0,0,1,39.019,49.023Zm-3-9c-.186,0-.363-.021-.549-.027.177-.3.354-.609.549-.9.2.291.372.6.549.9C36.381,40,36.2,40.019,36.018,40.019Zm-3.755-.4a18.051,18.051,0,0,1-11.8-8.578c.186-.006.363-.027.549-.027a17.939,17.939,0,0,1,13.062,5.649A20.887,20.887,0,0,0,32.263,39.62Zm5.7-2.956a17.939,17.939,0,0,1,13.062-5.649c.186,0,.363.021.549.027a18.061,18.061,0,0,1-11.8,8.578A20.888,20.888,0,0,0,37.962,36.663ZM21.01,67.032a18.007,18.007,0,0,1-3.755-35.618,21.07,21.07,0,0,0,13.84,11,20.82,20.82,0,0,0,2.977,18.969A17.939,17.939,0,0,1,21.01,67.032Zm30.015,0a17.939,17.939,0,0,1-13.062-5.649A20.82,20.82,0,0,0,40.94,42.414a21.07,21.07,0,0,0,13.84-11,18.007,18.007,0,0,1-3.755,35.618Z" transform="translate(4168 1268.966)"/>
</svg>
