<svg xmlns="http://www.w3.org/2000/svg" viewBox="173 1228.647 68.353 68.353">
  <defs>
    <style>
      .cls-1 {
        fill: #eb00ca;
      }
    </style>
  </defs>
  <path id="design_shape-tools" class="cls-1" d="M67.473,11.5a1.417,1.417,0,0,0-1.552.308l-9.06,9.06a22.775,22.775,0,0,0-45.469,1.917H1.424A1.425,1.425,0,0,0,0,24.208V66.929a1.425,1.425,0,0,0,1.424,1.424H44.145a1.425,1.425,0,0,0,1.424-1.424V56.961h21.36a1.425,1.425,0,0,0,1.424-1.424V12.816A1.424,1.424,0,0,0,67.473,11.5Zm-33.3-8.652A19.958,19.958,0,0,1,54.113,22.784c0,.3-.028.592-.051.886l-19,19c-.291.02-.584.048-.883.048A19.911,19.911,0,0,1,14.314,24.04a10.888,10.888,0,0,1-.074-1.256A19.958,19.958,0,0,1,34.177,2.848Zm8.544,62.657H2.848V25.633h8.781A22.721,22.721,0,0,0,32.257,45.475L23.2,54.529a1.426,1.426,0,0,0,1.005,2.432H42.721ZM65.505,54.113H27.646L65.505,16.254Z" transform="translate(173 1228.647)"/>
</svg>
