<svg xmlns="http://www.w3.org/2000/svg" xmlns:xlink="http://www.w3.org/1999/xlink" version="1.1" width="612.043" height="612.043" xml:space="preserve"><rect id="backgroundrect" width="100%" height="100%" x="0" y="0" fill="none" stroke="none"/>
















<g class="currentLayer"><title>Layer 1</title><g id="svg_1" class="selected" fill="#ffffff" fill-opacity="1">
	<g id="cross" fill="#ffffff" fill-opacity="1">
		<g id="svg_2" fill="#ffffff" fill-opacity="1">
			<path d="M397.503,306.011l195.577-195.577c25.27-25.269,25.27-66.213,0-91.482c-25.269-25.269-66.213-25.269-91.481,0     L306.022,214.551L110.445,18.974c-25.269-25.269-66.213-25.269-91.482,0s-25.269,66.213,0,91.482L214.54,306.033L18.963,501.61     c-25.269,25.269-25.269,66.213,0,91.481c25.269,25.27,66.213,25.27,91.482,0l195.577-195.576l195.577,195.576     c25.269,25.27,66.213,25.27,91.481,0c25.27-25.269,25.27-66.213,0-91.481L397.503,306.011z" id="svg_3" fill="#ffffff" fill-opacity="1"/>
		</g>
	</g>
</g><g id="svg_4">
</g><g id="svg_5">
</g><g id="svg_6">
</g><g id="svg_7">
</g><g id="svg_8">
</g><g id="svg_9">
</g><g id="svg_10">
</g><g id="svg_11">
</g><g id="svg_12">
</g><g id="svg_13">
</g><g id="svg_14">
</g><g id="svg_15">
</g><g id="svg_16">
</g><g id="svg_17">
</g><g id="svg_18">
</g></g></svg>